<svg xmlns="http://www.w3.org/2000/svg" width="434" height="635" fill="none"><path fill="#fff" fill-rule="evenodd" d="M211.557 371.865c.575 5.982-.599 11.694-3.396 16.523l-.91 1.571 1.732.605c3.152 1.101 6.657 1.636 10.716 1.636 4.177 0 8.521-.581 12.012-1.048l2.235-.298-1.098-1.938c-.883-1.558-1.046-3.446-1.219-5.444-.047-.537-.095-1.092-.158-1.641-3.307-29.514-7.488-59.414-11.531-88.329a12029.62 12029.62 0 0 1-3.231-23.216l-3.062.118c-.823 14.326-1.622 28.893-2.395 42.981-.34 6.195-.68 12.39-1.023 18.584-1.221 15.66-.8 28.341 1.328 39.896m1.249 176.986c-4.496 0-9-.467-13.388-1.389-13.73-2.877-26.204-9.666-36.818-15.804-.542-.307-1.092-.613-1.656-.929-4.156-2.321-9.327-5.209-12.568-8.732-3.556-3.865-4.168-7.717-1.926-12.121l.355-.696-.371-.689c-2.321-4.314-2.148-9.651.42-12.979l2.159-2.796-3.549.376c-3.579.379-7.185.893-10.674 1.39-3.87.551-7.872 1.121-11.814 1.502l-1.095.106-.252 1.054c-.14.587-.313.943-1.529.943-1.055 0-2.472-.308-3.971-.635-1.862-.404-3.971-.863-6.006-.863-.895 0-1.699.085-2.461.26l-.443.102-.315.322c-.201.207-.545.334-.895.334-.265 0-.511-.073-.676-.202l-.497-.388-.631.069c-10.988 1.205-20.463 3.319-28.965 6.463l-.039.014-.184.079c-3.075 1.325-6.253 2.695-9.148 2.695-2.116 0-3.835-.719-5.409-2.262l-.444-.436-.628-.006c-6.365-.058-9.273-7.469-9.676-12.436l-.05-.625-.485-.407c-11.094-9.294-17.643-22.059-20.022-39.024-2.168-15.453-.504-31.746 1.41-45.647 4.427-36.022 9.044-68.315 20.78-98.942l.548-1.432-1.461-.524c-5.069-1.818-8.943-3.988-11.843-6.633l-.201-.184-.253-.103c-4.157-1.705-6.193-8-6.718-9.888l-.042-.152-.074-.141c-.848-1.624-1.043-3.884-.536-6.199l.054-.25-.031-.253c-.274-2.199.635-4.497 1.598-6.931.44-1.112.894-2.261 1.226-3.406 1.142-3.271 2.282-6.599 3.386-9.819 2.475-7.224 5.035-14.693 7.762-21.96l.372-.993-.821-.685c-1.403-1.17-.934-2.547 1.088-5.838.478-.778.93-1.513 1.273-2.238a151.896 151.896 0 0 1 8.26-12.761l.059-.082.047-.089c14.822-27.637 41.113-42.857 74.03-42.857l.671.001.371-.223c6.169-3.704 10.573-10.059 13.464-19.428l.092-.299-.036-.31c-.099-.864-.207-1.996-.17-3.095.094-2.782 1.186-5.265 2.997-6.812 3.434-2.935 8.648-3.181 13.694-3.181l.725.001c6.452.019 11.007 1.137 14.335 3.521 3.866 2.768 6.003 7.238 6.533 13.664.158 1.923.153 3.915.148 5.841l-.001.538.065.214a37.932 37.932 0 0 0 1.614 4.362l.625 1.406 1.421-.634c.919-.41 2.084-.621 3.562-.644.426-.01.842-.015 1.261-.015 3.433 0 7.104.313 10.656.615 2.675.229 5.442.464 8.12.569l.037.002.536-.003c6.509 0 11.228 1.022 14.85 3.217 3.899 2.362 6.703 6.154 8.824 11.933 11.373 33.125 16.048 68.805 20.172 100.283 2.34 16.461 3.051 33.337 3.739 49.657.727 17.226 1.478 35.039 4.137 52.451l.211 1.376 1.412-.091c6.214-.4 12.93-1.263 20.041-2.176 10.803-1.387 21.973-2.822 32.772-2.822 15.099 0 26.547 2.966 34.994 9.067 5.888 5.539 8.934 13.04 8.809 21.696-.177 12.23-6.657 25.752-16.507 34.447l-.037.035c-12.452 11.744-35.18 21.929-67.554 30.274-29.769 7.674-60.562 11.845-76.269 13.647l-3.887.447 3.155 2.277c1.277.922 2.443 1.734 3.563 2.482l.722.482.792-.363c2.257-1.033 3.69-1.25 4.496-1.25.715 0 1.577.155 1.624.894.031.483-.313 1.201-1.041 1.292l-3.864.481 3.155 2.247c2.107 1.5 5.251 3.309 8.892 5.403 11.911 6.852 29.911 17.206 26.815 26.299l-.203.597.287.563c.832 1.628.903 3.139.217 4.62-1.47 3.173-6.067 5.582-9.972 6.562l-.066.017-.066.022a64.36 64.36 0 0 1-21.195 3.561" clip-rule="evenodd"/><mask id="a" width="336" height="406" x="26" y="145" maskUnits="userSpaceOnUse"><path fill="#fff" fill-rule="evenodd" d="M26.337 145.677h334.691v404.582H26.337V145.677Z" clip-rule="evenodd"/></mask><g mask="url(#a)"><path fill="#000" fill-rule="evenodd" d="M235.364 390.469c.797-4.344-.716-8.829-.977-13.202-3.96-31.197-8.333-62.373-14.127-93.297-1.421-7.401-2.857-14.771-4.504-22.131.249-4.457.467-8.914.611-13.374 8.04-5.047 17.107-8.313 26.483-9.96 2.534 14.095 5.066 28.179 6.823 42.4 5.476 35.2 2.352 71.017 7.664 106.176-7.369.825-14.681 2.046-21.973 3.388m14.143 27.422c-5.541 1.471-11.087 2.879-16.673 4.177-9.94 2.31-19.877 4.63-29.791 7.043-4.948 1.205-9.908 2.374-14.846 3.617a99.25 99.25 0 0 0-6.965 2.007 59.351 59.351 0 0 0-3.381 1.261c-.98.391-1.905.931-2.982.854-.064-.005-.104-.067-.072-.124.563-1.035 1.724-1.525 2.749-2.048 1.131-.577 2.308-1.072 3.487-1.544 2.619-1.049 5.346-1.82 8.066-2.567 9.886-2.717 19.856-5.15 29.817-7.585 10.007-2.446 20.016-4.789 30.157-6.641 1.021-.187 1.463 1.277.434 1.55m-49.086 83.637c.443-.119.89-.227 1.334-.331 7.109 5.91 40.593 21.256 38.046 30.423-.9 1.14-3.055 1.399-4.417 1.767a87.425 87.425 0 0 1-7.186 1.635c-7.818 1.42-15.915 1.667-23.722.048-2.873-.436-5.466-1.66-8.082-2.843-8.453-3.712-17.764-7.814-26.176-11.496-10.688-4.23-29.434-12.567-21.724-26.634 7.305 8.202 16.576 7.486 21.247-2.709 1.61-3.095 3.016-7.267 6.799-8.518 1.996-1.347 4.547-1.627 6.215-.126.12-.187.228-.449.287-.681 1.88 2.671 3.501 5.484 5.704 7.925-.757.041-8.631 5.859-6.307 5.862 2.796-1.438 5.573-2.636 8.592-3.41 2.188 2.197 4.594 4.24 7.087 6.129-2.421 1.597-4.597 3.551-6.346 5.673-.151.187.034.429.26.328 2.716-1.209 5.509-2.271 8.389-3.042m36.042 39.636c-27.195 12.196-55.985-1.385-79.176-15.863-5.353-2.984-12.393-7.214-11.311-14.239 3.943 5.759 10.442 9.038 16.679 11.881 10.48 4.729 21.029 9.307 31.535 13.979.992 3.286 5.737 3.412 8.605 4.141 12.765 2.472 26.486 1.244 38.5-3.685-.696 2.056-2.97 2.999-4.832 3.786M127.96 493.676c-.672.086-1.344.163-2.016.239.069-.887-.467-1.775-1.328-2.05.387-1.882.53-3.827.323-5.736 1.123 2.898 4.749 2.018 7.053 1.183a255.067 255.067 0 0 0 9.813-2.878c1.282 2.379 2.641 4.722 4.311 6.876-6.079.54-12.1 1.612-18.156 2.366m-2.675-9.116c-.161.341-.392.701-.397 1.11a18.204 18.204 0 0 0-.972-4.137l1.369 3.027m-3.836-7.56c-2.991-3.891-8.518-7.072-13.627-5.988-.329.071-.336.598 0 .664 6.863.931 12.89 6.366 13.129 13.393.541 3.181-1.675 6.304-.928 9.356l-.444.028a4.732 4.732 0 0 1-.167.544c.742.124.959 1.315.085 1.526a8.611 8.611 0 0 1-1.611.22c-2.798-.754-5.75-.929-8.425-2.043-2.647-1.168-1.985-4.45-2.919-6.722-.685-2.621-1.472-5.232-2.465-7.746-.071-.202-.346-.157-.369.048-.7 5.017-.677 10.119-.508 15.176-.918.094-1.831.197-2.747.311.059-1.413-4.185-18.623-6.422-14.206 1.126 4.855 1.262 9.928 1.382 14.925-6.64 1.092-13.183 2.719-19.548 4.933-4.486 1.357-9.821 5.373-14.176 1.743-3.373-2.784-4.509-7.643-4.191-11.777 4.386-24.459 39.026-27.317 59.475-25.508 1.932 4.449 3.899 8.884 5.892 13.308a16.51 16.51 0 0 0-1.416-2.185m-69.744 13.909c-.375-5.554.561-12.468 4.683-16.607 9.433-7.963 22.642-10.468 34.43-13.351a128.691 128.691 0 0 1 16.645-2.159c1.983-.157 4.502.292 5.902-1.327a992.094 992.094 0 0 0 2.183 5.11c-23.468-3.069-72.43 7.595-58.72 39.692-2.902-3.141-4.826-6.964-5.123-11.358M35.319 388.098c.657-4.767 1.375-9.53 2.134-14.284 3.104-22.742 9.518-44.875 13.342-67.463 6.62 2.149 13.399 3.786 20.083 5.721-14.483 24.048-26.33 49.584-35.559 76.026m54.385-22.377c-1.273-6.044-2.701-12.203-3.35-18.347-.03-.276.396-.305.472-.063 1.064 3.402 1.789 6.93 2.686 10.379.9 3.461 1.737 6.938 2.624 10.403l.851 3.319c.17.007.34.013.51.017.649.015.843.829.32 1.168a5.255 5.255 0 0 1-.458.263c2.715 10.543 5.497 21.064 8.533 31.527 3.538 12.193 7.521 24.239 10.705 36.53.074.285-.058.483-.251.569 1.656 5.593 3.043 11.26 4.557 16.896.315 1.173-1.421 1.933-2.014.835-.914-1.693-1.116-4.005-1.563-5.865a517.16 517.16 0 0 1-1.461-6.294 173.33 173.33 0 0 1-2.005-10.11 206.43 206.43 0 0 1-5.634-15.999c-3.72-12.14-7.151-24.364-10.205-36.683a700.086 700.086 0 0 1-2.63-10.928c-3.839.059-7.85-4.278-11.709-1.969-.178.107-.359-.136-.219-.279 1.539-1.556 3.665-1.691 5.73-1.306 1.342.25 2.629.725 3.943 1.082.579.158 1.173.274 1.774.36a387.1 387.1 0 0 1-1.206-5.505m82.721 114.433c-1.962 1.281-3.563 3.175-4.691 5.211-7.233 18.892-14.969 8.773-24.579-1.365 8.133-3.064 18.905-5.36 25.143-11.451 1.08 2.694 2.401 5.259 4.127 7.605m-2.589-46.084c-.628-3.108-1.145-6.235-1.616-9.37-.452-3.007-1.158-6.227-1.043-9.27.004-.122.176-.143.212-.029.978 3.034 1.271 6.389 1.891 9.513.6 3.021 1.259 6.03 1.923 9.038 1.364 6.173 3.292 12.253 4.459 18.464.125.665-.776.899-1.02.277-2.337-5.94-3.548-12.395-4.806-18.623M37.553 294.017c-3.16-3.398-5.642-7.736-5.162-12.34 1.898-2.527 2.526-5.824 3.631-8.745 4.322-12.223 8.333-24.54 13.037-36.632 10.006 3.072 19.849 6.758 29.134 11.598 1.708.87 3.398 1.773 5.068 2.709 1.749.979 3.657 2.679 5.755 2.192-2.293 3.241-7.015 6.614-7.812 10.359-.172 1.186.67 2.285 1.962 2.021 20.233 14.349 41.129 28.396 60.255 44.38 14.321 11.321 25.317 20.502 30.229 38.87 3.311 11.898 3.321 24.333 2.834 36.566-.095 2.379-.098 4.813-.29 7.207.287 1.79-.259 5.435-2.275 5.501a2.7 2.7 0 0 0 .418 1.188c-.064.085-.131.166-.2.25-.1-.49-.198-.977-.29-1.466-1.57-6.941-1.78-14.995-1.519-22.386.111-2.119-3.144-2.068-3.326 0l-1.469 16.759c-.588 3.619.338 8.354-2.56 11.106-2.947-2.72-1.973-8.082-1.829-11.591.231-5.723.48-11.443.693-17.167.066-1.813-2.942-2.28-3.284-.436a526.512 526.512 0 0 1-3.139 15.724c-.679 2.021-1.146 11.086-4.542 9.512-2.024-1.38-.564-9.469-.831-12.148.126-5.302.2-10.596.59-15.885.159-2.134-3.322-2.588-3.798-.505a340.581 340.581 0 0 0-2.188 10.14c-1.475 5.723-.939 13.482-6.263 17.286-2.086-14.867.915-29.63 1.336-44.444-.252-4.8-1.077-9.552-1.806-14.294-.805-5.244-1.274-10.952.611-16.01-.516-2.265-2.542 3.862-2.732 4.372-1.526-3.002-5.242-3.234-8.182-4.17-6.532-2.111-13.224-3.703-19.833-5.579-17.528-4.861-35.077-9.646-52.63-14.421-7.012-1.937-14.394-4.229-19.593-9.521m175.523 79.078c-2.419-13.089-2.352-26.351-1.319-39.583 1.137-20.522 2.239-41.049 3.419-61.568 5.122 37.139 10.583 74.235 14.758 111.493.297 2.593.251 5.337 1.562 7.65-7.243.969-14.963 1.945-22.006-.515 3.091-5.334 4.181-11.408 3.586-17.477M55.868 221.335c12.21-25.024 37.103-42.789 65.021-46.663.031.03.064.061.095.093a2.561 2.561 0 0 0-.254.268c.751-.553 1.782.141 1.449.905.413.941.718 1.91 1.1 2.858.162-.015.326-.03.49-.055 1.657 3.284 2.555 7.07 4.286 10.344 9.474 16.39 32.855 23.044 50.393 16.427 13.917-6.02 15.892-23.165 14.645-36.344-.064-.888-.515-1.516-1.118-1.886 7.589 1.213 15.179 2.436 22.776 3.589 3.659.555 7.42 1.357 10.246 3.867 11.124 11.428 13.108 42.183 16.851 58.172-8.954.936-18.962 6.031-25.379 12.209.303-7.023-.131-14.009-.942-20.981-.012-.341-.581-.457-.635-.083-1.603 7.067-2.837 14.195-3.345 21.437-2.111 29.141-3.365 58.339-5.173 87.5-.618 10.733-1.39 21.559.141 32.253 4.929 22.018-3.763 32.824-27.092 29.164 2.834-27.902.78-59.828-22.624-79.174-.713-.636-1.57-.593-2.219-.215-19.028-16.143-39.11-31.095-60.486-44.116.154-2.691-6.588-5.069-8.476-6.926 7.01-7.249 12.347-16.062 17.002-24.926.41-.963 5.763-10.659 4.06-10.049-5.086 7.525-10.144 15.097-16.133 21.983.326-3.176-7.915-5.305-10.451-6.755-9.8-4.122-20.047-7.348-30.606-9.018 1.9-4.724 3.978-9.378 6.378-13.878m130.416-51.039a36.108 36.108 0 0 1-.918-1.675c.99.038 1.954.073 2.929.235-.044 1.566.043 3.145.062 4.724-.488-1.155-1.442-2.21-2.073-3.284m165.384 220.581c-23.388-16.98-61.804-6.162-88.899-4.416-5.165-33.817-3.057-68.187-7.871-102.059-4.435-33.84-9.11-68.152-20.247-100.574-4.596-12.536-12.547-16.259-25.637-16.158-6.643-.26-13.668-1.322-20.124-1.171-1.416.023-2.895.21-4.173.78-1.795-4.041-2.77-8.379-3.262-12.751a.251.251 0 0 0-.49-.063c-1.519 3.806-1.68 7.961-.854 11.946.597 2.855 4.155 14.092 8.287 9.696.328 9.219-1.701 20.229-10.747 25.014-15.807 6.881-37.656.616-46.813-13.989-1.769-2.918-3.296-6.023-5.255-8.826 13.653-3.859 21.316-20.191 18.1-32.629-1.988 9.674-5.612 20.482-14.637 25.9-32.866-.073-60.191 14.872-75.631 43.657a153.08 153.08 0 0 0-8.375 12.942c-1.377 2.956-5.411 7.067-1.987 9.923-3.955 10.538-7.464 21.223-11.172 31.844-1.019 3.539-3.348 7.252-2.883 10.973-.503 2.292-.48 5.004.672 7.208 1.092 3.93 3.544 9.217 7.61 10.884 3.45 3.146 7.812 5.312 12.362 6.944-12.134 31.661-16.753 65.806-20.865 99.257-4.03 29.265-6.11 64.863 19.139 86.012.49 6.052 4.085 13.762 11.195 13.828 4.924 4.828 10.926 2.179 16.407-.182 9.251-3.42 18.954-5.317 28.595-6.374 1.034.808 2.716.674 3.637-.267 5.84-1.344 13.934 4.099 15.114-.832 7.53-.729 14.979-2.096 22.501-2.894-3.17 4.107-2.941 10.163-.554 14.6-6.081 11.943 8.085 18.859 16.746 23.76 11.693 6.76 23.904 13.175 37.277 15.977 11.757 2.469 24.073 1.72 35.417-2.225 5.961-1.496 14.286-6.406 10.749-13.325 4.484-13.167-27.002-26.81-36.263-33.404 3.785-.471 3.924-8.316-5.922-3.809a115.36 115.36 0 0 1-3.517-2.449c39.826-4.57 115.886-17.144 144.709-44.325 15.835-13.976 24.971-42.247 7.661-58.423" clip-rule="evenodd"/></g><path fill="#fff" fill-rule="evenodd" d="M168.206 63.917c14.238 0 32.617 8.919 34.184 18.053 1.847 10.765 11.737 52.07 9.504 65.316-2.233 13.246-14.268 22.782-33.526 22.782-19.258 0-33.632-10.487-36.932-14.088-3.301-3.601-9.417-16.457-9.417-16.457s-10.311-1.369-10.36-9.762c-.049-8.393 6.704-11.447 6.704-11.447s-2.408-33.123 3.656-41.746c6.064-8.624 21.948-12.651 36.187-12.651Z" clip-rule="evenodd"/><path fill="#000" fill-rule="evenodd" d="M201.519 80.496c-.011-.192.27-.215.323-.044 3.072 10.133 4.965 18.03 6.958 28.42l.589 3.056c1.573 8.151 3.163 16.315 4.505 24.505l.078.489c.673 4.24 1.06 8.521.218 12.77-.788 3.971-2.939 7.612-5.733 10.512-5.399 5.604-12.902 9.104-20.449 10.669-3.817.792-7.754 1.097-11.643.822a41.979 41.979 0 0 1-5.772-.812l-.21-.044c-1.913-.413-3.612-.905-4.628-2.703-.255-.453-.153-1.229.384-1.462 1.013-.436 1.758-.618 2.863-.493 1.056.12 2.087.438 3.13.636 1.994.378 4.02.568 6.049.613 3.984.088 7.979-.41 11.788-1.597 6.544-2.041 13.195-5.945 17.019-11.784 4.498-6.869 2.707-15.206 1.515-22.792l-.036-.23c-1.207-7.754-2.4-15.508-3.558-23.267l-.494-3.325c-1.299-8.787-2.525-15.06-2.896-23.939ZM135.07 58.99c3.266-2.15 7.326-2.678 11.162-2.649l.481.006c4.912.075 29.641.663 37.921.843l1.969.042c2.607.049 7.865.1 10.574.15l.156.003c1.329.025 2.658.035 3.987.077l.195.007c.996.043 1.824.191 2.604.892.396.355.551.897.515 1.413l-.006.067 1.973.173c1.34.118 2.049 1.318 1.517 2.533l-.027.058c-.945 2.014-1.668 7.873-2.174 10.039a28.95 28.95 0 0 0-.605 3.46c-.1.917-.11 1.836-.621 2.642-1.091 1.72-4.16 1.705-4.216-.731-.002-.078 0-.153.008-.225-7.723-.338-18.268-.306-25.981.155a145.412 145.412 0 0 0-26.776 4.142c-1.452.365-3.235.583-4.534 1.367-1.454.881-1.427 2.461-1.269 3.966.17 1.595.453.773.853 2.227l.025.092c.414 1.577.925 3.137 1.602 4.62.386.846 1.009 1.66.773 2.634-.133.548-.567 1.134-.966 1.517-1.816 1.741-4.885.631-6.118 3.015-1.292 2.493-1.324 5.869-1.433 8.628l-.007.161a52.9 52.9 0 0 0 .068 5.702c.113 1.727.574 3.438-.018 5.098-.431 1.207-1.84 1.32-2.577.338a4.658 4.658 0 0 1-.235-.344l-.071-.117-.005.003c.07.11.135.223.198.338.067.127-.101.268-.203.157-1.736-1.885-4.271-1.509-6.234-.19-1.989 1.342-2.774 3.891-2.876 6.178-.116 2.536.11 5.509 1.168 7.852.446.992 1.083 1.903 2.139 2.281.479.171.935.148 1.434.188.519.04 1.144.301 1.648.265.655-.046 1.243.701 1.057 1.326l-.014.042-.03.087a.27.27 0 0 1 .068.09c1.905 3.889 4.518 7.35 7.407 10.56 1.447 1.605 3.052 3.08 4.729 4.444.828.674 1.701 1.348 2.621 1.891.306.177.586.298.93.396.161.045.344.067.499.12l.162.055.031.01c.462.052.85.358 1.003.836.399 1.247-.326 2.349-1.564 2.692-1.343.375-2.607-.283-3.671-1.039l-.071-.05c-2.169-1.56-4.167-3.311-5.898-5.354-3.422-4.034-5.567-8.704-6.559-13.869-.246.528-.577.989-1.151 1.309-.893.501-1.959.501-2.937.333-1.968-.333-3.646-1.532-4.767-3.155-1.164-1.683-1.597-3.726-1.86-5.717-.261-1.993-.389-3.993-.128-5.992.374-2.869 1.58-5.706 3.924-7.279-1.755-3.818-2.064-8.1-1.938-12.282.153-5.148 1.043-10.354 1.727-15.454l1.947-14.501.079-.585c.47-3.411 1.042-6.84 2.32-10.055 1.261-3.167 3.177-6.032 6.066-7.932Zm-8.19 68.599c3.215-1.557 6.688-.123 8.418 2.9 1.504 2.627-2.969 4.364-3.715 1.656l-.021-.084c-.492-2.05-2.493-3.823-4.582-4.099-.173-.025-.301-.275-.1-.373Z" clip-rule="evenodd"/><path fill="#000" fill-rule="evenodd" d="M190.216 127.796c1.894 1.149 4.779 3.829 2.742 6.679-2.398 2.512-5.85-.369-7.551-1.671-1.578-1.01-3.35 1.587-1.886 2.766 12.293 9.088 17.281-7.474 7.653-9.125-1.06-.182-1.454.995-.958 1.351Zm-17.108-21.919.471-.083.241-.04c1.41-.233 3.082-.389 4.056.716.546.62.734 1.773 0 2.366-1.292 1.044-2.72.64-4.268.728a16.996 16.996 0 0 0-3.732.635c-2.696.769-4.893 2.174-7.195 3.717-.302.202-.611-.184-.467-.466 1.33-2.6 3.906-4.736 6.486-6.038 1.377-.694 2.884-1.271 4.408-1.535Zm12.472 35.917c4.12.299 13.05-1.665 16.758 1.281 13.974 17.425-41.426 21.904-35.443 2.627 3.81-6.233 12.576-3.728 18.685-3.908Zm-.707 10.519c-1.019-.083-2.256.723-2.555 1.346-.299.623-.183 1.939-.174 2.168 1.781.179 3.579.206 5.365.089-.464-1.533-.479-3.371-2.636-3.603Zm8.227 2.572c-.287-1.903-1.65-2.353-2.753-2.068-1.129.292-1.791 1.59-1.72 2.745.005.079-.041.147-.071.211a30.816 30.816 0 0 0 4.544-.888Zm-12.637-2.227c-.643-.976-2.178-1.447-3.161-1.275-1.606.337-1.796 2.375-1.796 2.79 1.481.563 3.052.937 4.555 1.235.301.06.604.113.907.163l.019-.247c.037-.53.064-1.773-.524-2.666Zm18.163-.161c-1.647-2.544-5.185-.723-4.893 2.056.315-.099.627-.202.939-.311 1.293-.45 2.712-.985 3.954-1.745Zm-12.961-8.763c-2.215-.199-4.032-.132-5.476.135l-.044.482c-.16 1.67-.366 3.313.512 3.985.714.546 3.082.494 4.67.099.392-.099.902-3.564.338-4.701Zm3.424-.199c-.354 1.646-.521 3.645.191 4.239.753.627 3.176.542 3.809.124.555-.365.54-2.047.335-3.934-1.227-.289-3.364-.429-4.335-.429Zm-9.879.351-.726.006-.41.006c-1.038.018-2.158.078-3.216.309-2.103 4.538 5.576 5.321 4.39-.153l-.038-.168Zm15.19.109-.013.257c-.063 1.275-.021 2.954.686 3.407 1.04.667 2.995.538 4.053-2.547-.35-.92-4.065-1.049-4.726-1.117Zm-20.38-27.058c.444 0 .87.151 1.257.429.381.275.726.675 1.014 1.175.543.945.883 2.251.883 3.694 0 1.444-.34 2.749-.883 3.695-.288.499-.633.9-1.014 1.174-.387.279-.813.43-1.257.43-.445 0-.87-.151-1.258-.43-.381-.274-.726-.675-1.013-1.174-.544-.946-.884-2.251-.884-3.695 0-1.443.34-2.749.884-3.694.287-.5.632-.9 1.013-1.175.388-.278.813-.429 1.258-.429Zm28.145 0c.444 0 .87.151 1.257.429.381.275.726.675 1.014 1.175.544.945.884 2.251.884 3.694 0 1.444-.34 2.749-.884 3.695-.288.499-.633.9-1.014 1.174-.387.279-.813.43-1.257.43-.445 0-.87-.151-1.257-.43-.382-.274-.727-.675-1.014-1.174-.544-.946-.884-2.251-.884-3.695 0-1.443.34-2.749.884-3.694.287-.5.632-.9 1.014-1.175.387-.278.812-.429 1.257-.429Zm-3.829-12.225.36.074.239.05c3.887.835 8.814 2.481 10.634 6.249.07.544-.004.661-.065.737l-.021.025c-.05.065-.09.155-.326.229-.065-.016-.131-.032-.198-.05-.851-.223-1.525-.529-2.177-.848l-.707-.348c-.82-.401-1.647-.788-2.524-1.074a29.785 29.785 0 0 0-5.75-1.268c-.424-.049-.832-.192-1.154-.437a1.735 1.735 0 0 1-.645-.981c-.138-.553-.098-.972.199-1.471.224-.375.543-.635.911-.784.374-.152.8-.188 1.224-.103Z" clip-rule="evenodd"/></svg>